<?xml version="1.0" encoding="UTF-8"?>
<svg width="27px" height="27px" viewBox="0 0 44 44" version="1.1" xmlns="http://www.w3.org/2000/svg" xmlns:xlink="http://www.w3.org/1999/xlink">
    <!-- Generator: Sketch 39.1 (31720) - http://www.bohemiancoding.com/sketch -->
    <title>github copy</title>
    <desc>Created with Sketch.</desc>
    <defs>
        <circle id="path-1" cx="22" cy="22" r="22"></circle>
        <mask id="mask-2" maskContentUnits="userSpaceOnUse" maskUnits="objectBoundingBox" x="0" y="0" width="44" height="44" fill="white">
            <use xlink:href="#path-1"></use>
        </mask>
    </defs>
    <g id="Page-1" stroke="none" stroke-width="1" fill="none" fill-rule="evenodd">
        <g id="github-copy">
            <rect id="Rectangle" x="0" y="0" width="44" height="44"></rect>
            <use id="Oval" stroke="#FFFFFF" mask="url(#mask-2)" stroke-width="4" xlink:href="#path-1"></use>
            <path d="M2,21.5073897 C2,30.5663938 7.73007152,38.253203 15.6775223,40.9648615 C16.6781669,41.1536957 17.042819,40.5204718 17.042819,39.9766294 C17.042819,39.4894373 17.02563,38.2003294 17.0158077,36.4894919 C11.4527149,37.728244 10.2789527,33.7400666 10.2789527,33.7400666 C9.36916419,31.3708273 8.05789005,30.7401212 8.05789005,30.7401212 C6.24199638,29.467379 8.19540195,29.4938158 8.19540195,29.4938158 C10.20283,29.6385886 11.2587249,31.6074995 11.2587249,31.6074995 C13.043924,34.7408876 15.9402683,33.8357426 17.0796525,33.3107836 C17.2613647,31.9851678 17.7782621,31.0825405 18.349182,30.5689116 C13.9082845,30.051506 9.239019,28.2928305 9.239019,20.4348117 C9.239019,18.1952386 10.0186623,16.3648061 11.2980141,14.9309254 C11.092974,14.4122609 10.4066423,12.3275318 11.4944596,9.50509055 C11.4944596,9.50509055 13.1740692,8.9524359 16.9937076,11.6061853 C18.5898278,11.1517244 20.300132,10.9238645 22.0006139,10.9163112 C23.699868,10.9238645 25.4101722,11.1517244 27.008748,11.6061853 C30.8259308,8.9524359 32.5030848,9.50509055 32.5030848,9.50509055 C33.5933577,12.3275318 32.907026,14.4122609 32.7019859,14.9309254 C33.9837932,16.3648061 34.7572976,18.1952386 34.7572976,20.4348117 C34.7572976,28.3117139 30.0818932,30.0452115 25.6262623,30.5538049 C26.3445164,31.1870287 26.9829645,32.4383698 26.9829645,34.3506304 C26.9829645,37.0925024 26.9596366,39.3043798 26.9596366,39.9766294 C26.9596366,40.5255074 27.3193775,41.1625079 28.3347555,40.9623437 C36.2748396,38.2456496 42,30.5651349 42,21.5073897 C42,10.1811168 33.0445379,1 21.9981583,1 C10.9554621,1 2,10.1811168 2,21.5073897 Z" id="Shape" fill="#FFFFFF"></path>
        </g>
    </g>
</svg>
